<?xml version="1.0" encoding="UTF-8"?>
<svg width="108px" height="59px" viewBox="0 0 108 59" version="1.1" xmlns="http://www.w3.org/2000/svg" xmlns:xlink="http://www.w3.org/1999/xlink">
    <defs>
        <polygon id="path-1" points="0.3333331 61.3333331 108.333333 61.3333331 108.333333 0.3333331 0.3333331 0.3333331"></polygon>
    </defs>
    <g id="Artboard" stroke="none" stroke-width="1" fill="none" fill-rule="evenodd">
        <g id="boutique_air_logo_na-only" transform="translate(0.000000, -2.000000)">
            <g id="g10" transform="translate(54.500000, 31.299467) scale(-1, 1) rotate(-180.000000) translate(-54.500000, -31.299467) translate(0.000000, 0.299467)">
                <g id="g12" transform="translate(-0.000000, 0.000000)">
                    <g id="g14-Clipped" transform="translate(-0.000000, 0.000000)">
                        <mask id="mask-2" fill="white">
                            <use xlink:href="#path-1"></use>
                        </mask>
                        <g id="path16"></g>
                        <g id="g14" mask="url(#mask-2)">
                            <g transform="translate(0.333333, 0.333333)">
                                <g id="g20" transform="translate(0.300133, 0.421867)">
                                    <path d="M50.6666654,30.6666659 C44.3759989,18.1906662 39.6426657,10.6146664 26.9679993,10.6146664 C18.0533329,10.6146664 10.7279997,17.5026662 10.0066664,26.234666 L10.1119997,29.9719993 C11.1879997,37.7959991 17.5799996,43.9493322 25.5239994,44.6186656 L25.5239994,44.6853322 L26.9679993,44.6853322 C34.0386658,44.6853322 40.295999,40.223999 42.8093323,33.8439992 C43.0853323,34.3826658 43.3679989,34.9293325 43.6493322,35.4919991 C45.1679989,38.507999 46.5773322,41.2506656 48.2053321,43.9453322 C43.1293323,50.5466654 35.2613325,54.461332 26.9679993,54.461332 C20.5839995,54.461332 14.7199996,52.209332 10.1119997,48.4733321 L10.1119997,59.1106652 L0.161333329,59.1106652 L0.161333329,26.234666 C0.899999978,12.1119997 12.6639997,0.841333312 26.9679993,0.841333312 C37.9706657,0.841333312 45.0373322,5.2813332 50.1293321,11.1799997 C57.7919986,21.0853328 51.6986654,36.6839991 61.0026651,46.6973322 C56.4186653,42.0533323 53.3706653,36.0306658 50.6666654,30.6666659" id="path22" fill="#666766" fill-rule="nonzero"></path>
                                </g>
                                <g id="g24" transform="translate(49.591732, 1.207733)">
                                    <path d="M30.6666659,53.6666653 C22.1253328,53.6666653 16.1853329,50.4439987 11.7119997,45.9119988 C2.40666661,35.8986657 8.49999979,20.2999995 0.837333312,10.393333 C4.82133321,15.0079996 7.59733314,20.5079995 10.1053331,25.482666 C15.8613329,36.8986657 19.9346662,43.8919989 30.6666659,43.8919989 C40.0546657,43.8919989 47.6946655,36.2533324 47.6986655,26.8679993 L47.6986655,26.8653326 L47.6986655,26.8679993 L47.5199988,24.542666 C46.3773322,16.2506662 39.2613324,9.83333306 30.6666659,9.83333306 C24.9719994,9.83333306 19.6893328,12.7199997 16.5533329,17.3679995 C15.0986663,14.5266663 13.3959997,11.341333 11.3786664,8.3133331 C16.4373329,3.05466657 23.4039994,0.0599999735 30.6666659,0.0599999735 L31.1999992,0.0573333069 C37.3773324,0.17999997 43.0386656,2.41466658 47.5199988,6.05333316 L47.5199988,0.0546666403 L57.4719986,0.0546666403 L57.4719986,26.6599993 L57.4719986,26.8653326 L57.4719986,26.870666 C57.4693319,41.6453323 45.4439989,53.6666653 30.6666659,53.6666653" id="path26" fill="#6A9DD3" fill-rule="nonzero"></path>
                                </g>
                            </g>
                        </g>
                    </g>
                </g>
            </g>
        </g>
    </g>
</svg>