<?xml version="1.0" encoding="UTF-8"?>
<svg width="350px" height="350px" viewBox="0 0 350 350" version="1.1" xmlns="http://www.w3.org/2000/svg"
     xmlns:xlink="http://www.w3.org/1999/xlink">
    <g id="Page-1" stroke="none" stroke-width="1" fill="none" fill-rule="evenodd">
        <g id="radar">
            <g id="icon">
                <g id="stop">
                    <path d="M252.368264,11.9698427 C247.917101,7.49342567 241.86014,4.98371249 235.547383,5.00007955 L114.452617,5.00007955 C108.13986,4.98371249 102.082899,7.49342567 97.6317357,11.9698427 L11.9698427,97.6317357 C7.49342567,102.082899 4.98371249,108.13986 5.00007955,114.452617 L5.00007955,235.547383 C4.98371249,241.86014 7.49342567,247.917101 11.9698427,252.368264 L97.6317357,338.030157 C102.082899,342.506574 108.13986,345.016288 114.452617,344.99992 L235.547383,344.99992 C241.86014,345.016288 247.917101,342.506574 252.368264,338.030157 L338.030157,252.368264 C342.506574,247.917101 345.016288,241.86014 344.99992,235.547383 L344.99992,114.374742 C345.016288,108.061986 342.506574,102.005024 338.030157,97.5538613 L252.368264,11.9698427 Z M332.501072,229.239553 C332.492449,236.256909 329.690293,242.982083 324.713627,247.929421 L247.968358,324.674689 C243.02102,329.651356 236.295847,332.453511 229.27849,332.462134 L120.72151,332.462134 C113.704153,332.453511 106.97898,329.651356 102.031642,324.674689 L25.2474361,247.890484 C20.2707696,242.943145 17.4686141,236.217972 17.4599913,229.200616 L17.4599913,120.643635 C17.4686141,113.626279 20.2707696,106.901106 25.2474361,101.953768 L102.031642,25.1695616 C106.97898,20.1928952 113.704153,17.3907397 120.72151,17.3821168 L229.27849,17.3821168 C236.295847,17.3907397 243.02102,20.1928952 247.968358,25.1695616 L324.752564,101.953768 C329.72923,106.901106 332.531386,113.626279 332.540009,120.643635 L332.540009,229.200616 L332.501072,229.239553 Z"
                          id="Shape"></path>
                    <path d="M341.483226,93.9944967 L255.927726,8.43899629 C250.503974,3.01588653 243.142043,-0.0212601132 235.472183,0.000112846667 L114.527817,0.000112846667 C106.819795,-0.0214429072 99.42443,3.04595295 93.9944967,8.51677402 L8.43899629,94.0722744 C3.01588653,99.4960259 -0.0212601132,106.857957 0.000112846667,114.527817 L0.000112846667,235.472183 C-0.0214429072,243.180205 3.04595295,250.57557 8.51677402,256.005503 L94.0722744,341.561004 C99.4960259,346.984113 106.857957,350.02126 114.527817,349.999887 L235.472183,349.999887 C243.180205,350.021443 250.57557,346.954047 256.005503,341.483226 L341.561004,255.927726 C346.984113,250.503974 350.02126,243.142043 349.999887,235.472183 L349.999887,114.527817 C350.021443,106.819795 346.954047,99.42443 341.483226,93.9944967 Z M344.711002,235.433294 C344.727348,241.73821 342.220752,247.787649 337.749895,252.233284 L252.194395,337.788784 C247.74876,342.259641 241.699321,344.766237 235.394405,344.749891 L114.527817,344.749891 C108.222901,344.766237 102.173462,342.259641 97.7278276,337.788784 L12.1723272,252.233284 C7.70146996,247.787649 5.19487386,241.73821 5.2112206,235.433294 L5.2112206,114.527817 C5.19487386,108.222901 7.70146996,102.173462 12.1723272,97.7278276 L97.7278276,12.1723272 C102.173462,7.70146996 108.222901,5.19487386 114.527817,5.2112206 L235.472183,5.2112206 C241.777099,5.19487386 247.826538,7.70146996 252.272172,12.1723272 L337.827673,97.7278276 C342.29853,102.173462 344.805126,108.222901 344.788779,114.527817 L344.788779,235.472183 L344.711002,235.433294 Z"
                          id="Shape" fill="#676A6C" fill-rule="nonzero"></path>
                    <path d="M248.449827,25.7854671 L325.214533,102.550173 C330.189935,107.496255 332.991379,114.21972 333,121.235294 L333,229.764706 C332.991379,236.78028 330.189935,243.503745 325.214533,248.449827 L248.449827,325.214533 C243.503745,330.189935 236.78028,332.991379 229.764706,333 L121.235294,333 C114.21972,332.991379 107.496255,330.189935 102.550173,325.214533 L25.7854671,248.449827 C20.8100645,243.503745 18.0086207,236.78028 18,229.764706 L18,121.235294 C18.0086207,114.21972 20.8100645,107.496255 25.7854671,102.550173 L102.550173,25.7854671 C107.496255,20.8100645 114.21972,18.0086207 121.235294,18 L229.764706,18 C236.78028,18.0086207 243.503745,20.8100645 248.449827,25.7854671 Z M66,133 C62.6862915,133 60,135.686292 60,139 L60,211 C60,214.313708 62.6862915,217 66,217 L285,217 C288.313708,217 291,214.313708 291,211 L291,139 C291,135.686292 288.313708,133 285,133 L66,133 Z"
                          id="Combined-Shape" fill="#676A6C" fill-rule="nonzero"></path>
                </g>
                <path d="M94.7226562,167.074219 C92.443999,167.074219 90.6796938,167.93033 89.4296875,169.642578 C88.1796812,171.354826 87.5546875,173.74087 87.5546875,176.800781 C87.5546875,183.168001 89.9439865,186.351562 94.7226562,186.351562 C96.7278746,186.351562 99.1562357,185.850265 102.007812,184.847656 L102.007812,189.925781 C99.6640508,190.902349 97.0468895,191.390625 94.15625,191.390625 C90.0025834,191.390625 86.8255318,190.130872 84.625,187.611328 C82.4244682,185.091784 81.3242188,181.475284 81.3242188,176.761719 C81.3242188,173.792954 81.8645779,171.192068 82.9453125,168.958984 C84.0260471,166.7259 85.5787659,165.013678 87.6035156,163.822266 C89.6282653,162.630853 92.0012885,162.035156 94.7226562,162.035156 C97.4961076,162.035156 100.282538,162.705722 103.082031,164.046875 L101.128906,168.96875 C100.061193,168.460935 98.9869846,168.018231 97.90625,167.640625 C96.8255154,167.263019 95.7643281,167.074219 94.7226562,167.074219 Z M131.324219,162.445312 L131.324219,180.921875 C131.324219,183.031261 130.852218,184.8802 129.908203,186.46875 C128.964188,188.0573 127.600269,189.274735 125.816406,190.121094 C124.032543,190.967452 121.923189,191.390625 119.488281,191.390625 C115.816388,191.390625 112.964854,190.449879 110.933594,188.568359 C108.902334,186.68684 107.886719,184.111996 107.886719,180.84375 L107.886719,162.445312 L113.921875,162.445312 L113.921875,179.925781 C113.921875,182.126313 114.364579,183.74088 115.25,184.769531 C116.135421,185.798182 117.60025,186.3125 119.644531,186.3125 C121.623708,186.3125 123.05924,185.794927 123.951172,184.759766 C124.843103,183.724604 125.289062,182.100271 125.289062,179.886719 L125.289062,162.445312 L131.324219,162.445312 Z M155.171875,183.070312 C155.171875,185.64845 154.24415,187.67968 152.388672,189.164062 C150.533194,190.648445 147.951839,191.390625 144.644531,191.390625 C141.597641,191.390625 138.902355,190.817714 136.558594,189.671875 L136.558594,184.046875 C138.485687,184.906254 140.11653,185.511717 141.451172,185.863281 C142.785814,186.214846 144.006505,186.390625 145.113281,186.390625 C146.441413,186.390625 147.460283,186.136721 148.169922,185.628906 C148.879561,185.121091 149.234375,184.36589 149.234375,183.363281 C149.234375,182.803383 149.078127,182.305341 148.765625,181.869141 C148.453123,181.432941 147.994144,181.013023 147.388672,180.609375 C146.7832,180.205727 145.549488,179.561202 143.6875,178.675781 C141.9427,177.855465 140.634119,177.067712 139.761719,176.3125 C138.889319,175.557288 138.192711,174.67839 137.671875,173.675781 C137.151039,172.673172 136.890625,171.501309 136.890625,170.160156 C136.890625,167.634102 137.746736,165.648445 139.458984,164.203125 C141.171233,162.757805 143.537745,162.035156 146.558594,162.035156 C148.042976,162.035156 149.458978,162.210936 150.806641,162.5625 C152.154304,162.914064 153.563795,163.408851 155.035156,164.046875 L153.082031,168.753906 C151.558586,168.128903 150.298833,167.69271 149.302734,167.445312 C148.306636,167.197915 147.326828,167.074219 146.363281,167.074219 C145.217442,167.074219 144.338545,167.341143 143.726562,167.875 C143.11458,168.408857 142.808594,169.105464 142.808594,169.964844 C142.808594,170.498701 142.93229,170.964191 143.179688,171.361328 C143.427085,171.758466 143.820961,172.142576 144.361328,172.513672 C144.901695,172.884767 146.180979,173.552079 148.199219,174.515625 C150.868503,175.791673 152.697912,177.070957 153.6875,178.353516 C154.677088,179.636074 155.171875,181.208324 155.171875,183.070312 Z M171.363281,191 L165.308594,191 L165.308594,167.484375 L157.554688,167.484375 L157.554688,162.445312 L179.117188,162.445312 L179.117188,167.484375 L171.363281,167.484375 L171.363281,191 Z M208.628906,176.683594 C208.628906,181.41018 207.457043,185.042956 205.113281,187.582031 C202.76952,190.121106 199.410178,191.390625 195.035156,191.390625 C190.660134,191.390625 187.300793,190.121106 184.957031,187.582031 C182.61327,185.042956 181.441406,181.397159 181.441406,176.644531 C181.441406,171.891903 182.616525,168.262382 184.966797,165.755859 C187.317069,163.249336 190.686176,161.996094 195.074219,161.996094 C199.462262,161.996094 202.818348,163.259102 205.142578,165.785156 C207.466808,168.311211 208.628906,171.943987 208.628906,176.683594 Z M187.789062,176.683594 C187.789062,179.873714 188.394525,182.276034 189.605469,183.890625 C190.816412,185.505216 192.62629,186.3125 195.035156,186.3125 C199.86591,186.3125 202.28125,183.102897 202.28125,176.683594 C202.28125,170.25127 199.87893,167.035156 195.074219,167.035156 C192.665353,167.035156 190.848964,167.845695 189.625,169.466797 C188.401036,171.087899 187.789062,173.493474 187.789062,176.683594 Z M226.636719,191 L219.761719,168.597656 L219.585937,168.597656 C219.833335,173.154971 219.957031,176.195305 219.957031,177.71875 L219.957031,191 L214.546875,191 L214.546875,162.445312 L222.789062,162.445312 L229.546875,184.28125 L229.664062,184.28125 L236.832031,162.445312 L245.074219,162.445312 L245.074219,191 L239.429687,191 L239.429687,177.484375 C239.429687,176.846351 239.439453,176.110681 239.458984,175.277344 C239.478516,174.444006 239.566405,172.230487 239.722656,168.636719 L239.546875,168.636719 L232.183594,191 L226.636719,191 Z M269.117188,183.070312 C269.117188,185.64845 268.189462,187.67968 266.333984,189.164062 C264.478506,190.648445 261.897152,191.390625 258.589844,191.390625 C255.542954,191.390625 252.847668,190.817714 250.503906,189.671875 L250.503906,184.046875 C252.430999,184.906254 254.061842,185.511717 255.396484,185.863281 C256.731126,186.214846 257.951817,186.390625 259.058594,186.390625 C260.386725,186.390625 261.405595,186.136721 262.115234,185.628906 C262.824873,185.121091 263.179688,184.36589 263.179688,183.363281 C263.179688,182.803383 263.023439,182.305341 262.710938,181.869141 C262.398436,181.432941 261.939456,181.013023 261.333984,180.609375 C260.728513,180.205727 259.494801,179.561202 257.632812,178.675781 C255.888012,177.855465 254.579431,177.067712 253.707031,176.3125 C252.834631,175.557288 252.138023,174.67839 251.617188,173.675781 C251.096352,172.673172 250.835938,171.501309 250.835938,170.160156 C250.835938,167.634102 251.692049,165.648445 253.404297,164.203125 C255.116545,162.757805 257.483058,162.035156 260.503906,162.035156 C261.988289,162.035156 263.40429,162.210936 264.751953,162.5625 C266.099616,162.914064 267.509107,163.408851 268.980469,164.046875 L267.027344,168.753906 C265.503899,168.128903 264.244146,167.69271 263.248047,167.445312 C262.251948,167.197915 261.27214,167.074219 260.308594,167.074219 C259.162755,167.074219 258.283857,167.341143 257.671875,167.875 C257.059893,168.408857 256.753906,169.105464 256.753906,169.964844 C256.753906,170.498701 256.877603,170.964191 257.125,171.361328 C257.372397,171.758466 257.766273,172.142576 258.306641,172.513672 C258.847008,172.884767 260.126292,173.552079 262.144531,174.515625 C264.813815,175.791673 266.643224,177.070957 267.632812,178.353516 C268.622401,179.636074 269.117188,181.208324 269.117188,183.070312 Z"
                      id="CUSTOMS" fill="#676A6C"></path>
            </g>
        </g>
    </g>
</svg>
